# xmcd
#
# Track frame offsets:
#	150
#	15532
#	30592
#	47137
#	64763
#	84862
#	99457
#	112489
#	128651
#	143530
#	162110
#	179309
#
# Disc length: 2582 seconds
#
# Revision: 0
# Processed by: cddbd v1.5.2PL0 Copyright (c) Steve Scherf et al.
# Submitted via: EZCDAudioConverter 3.1.4.1
#
DISCID=940a140c
DTITLE=Train - Christmas In Tahoe
DYEAR=2015
DGENRE=Country Christmas
TTITLE0=This Christmas
TTITLE1=Christmas Must Be Tonight
TTITLE2=The River
TTITLE3=Christmas Island
TTITLE4=Have Yourself A Merry Little Christmas
TTITLE5=Merry Christmas Everybody
TTITLE6=What Christmas Means To Me
TTITLE7=Wait For Mary, Christmas
TTITLE8=O Holy Night
TTITLE9=Shake Up Christmas
TTITLE10=2000 Miles
TTITLE11=Tinsel and Lights
EXTD=
EXTT0=
EXTT1=
EXTT2=
EXTT3=
EXTT4=
EXTT5=
EXTT6=
EXTT7=
EXTT8=
EXTT9=
EXTT10=
EXTT11=
PLAYORDER=
